<svg width="1184" height="481" viewBox="0 0 1184 481" fill="none" xmlns="http://www.w3.org/2000/svg">
<path d="M8.434 478H0.310001L202.733 4.09997L210.18 0.714971L380.784 478H323.239L270.433 329.06H72.749L8.434 478ZM181.746 77.216L75.457 322.29H268.402L181.746 77.216ZM447.336 478H438.535V4.09997H461.553L743.185 442.119V4.09997H751.986V478H702.565L447.336 85.34V478ZM897.388 4.77696C917.247 3.8743 936.654 3.42298 955.61 3.42298C975.017 3.42298 995.327 5.45398 1016.54 9.51598C1038.2 13.578 1059.42 21.2506 1080.18 32.534C1101.39 43.366 1119.22 57.583 1133.66 75.185C1148.55 92.3356 1160.52 115.128 1169.54 143.562C1178.57 171.996 1183.08 206.523 1183.08 247.143C1183.08 287.763 1176.31 324.321 1162.77 356.817C1149.68 388.862 1131.63 413.459 1108.61 430.61C1063.93 464.009 1010 480.708 946.809 480.708C924.694 480.708 901.45 479.805 877.078 478H843.228V4.77696H897.388ZM899.419 472.584C908.897 473.487 920.857 473.938 935.3 473.938C949.743 473.938 960.575 473.712 967.796 473.261C975.017 472.81 984.947 471.004 997.584 467.845C1010.22 464.234 1021.96 459.495 1032.79 453.628C1043.62 447.761 1054.9 439.185 1066.64 427.902C1078.82 416.167 1089.2 402.402 1097.78 386.605C1117.19 349.596 1126.89 301.303 1126.89 241.727C1126.89 199.302 1121.7 162.744 1111.32 132.053C1100.94 100.911 1088.98 77.893 1075.44 62.999C1062.35 48.105 1046.33 36.3703 1027.37 27.795C1008.42 18.7683 993.296 13.578 982.013 12.224C970.73 10.87 957.641 10.193 942.747 10.193C927.853 10.193 913.41 10.87 899.419 12.224V472.584Z" fill="black"/>
</svg>
