<svg width="1579" height="480" viewBox="0 0 1579 480" fill="none" xmlns="http://www.w3.org/2000/svg">
<path d="M237.123 479.708C152.724 479.708 90.214 455.787 49.594 407.946C35.1513 390.795 23.4167 368.003 14.39 339.569C5.36333 311.135 0.850001 276.608 0.850001 235.988C0.850001 195.368 7.39433 159.036 20.483 126.991C34.023 94.495 52.302 69.446 75.32 51.844C120.002 18.8966 173.936 2.42298 237.123 2.42298C255.176 2.42298 272.778 4.00265 289.929 7.162C307.08 9.86999 319.943 12.8036 328.518 15.963L340.704 20.702L338.673 27.472C307.982 15.286 274.132 9.19297 237.123 9.19297C189.282 9.19297 149.339 24.764 117.294 55.906C92.922 78.924 75.7713 112.774 65.842 157.456C59.9747 182.731 57.041 213.647 57.041 250.205C57.041 286.763 62.2313 320.613 72.612 351.755C82.9927 382.446 94.7273 405.238 107.816 420.132C121.356 435.026 137.604 446.986 156.56 456.013C175.516 464.588 190.636 469.553 201.919 470.907C213.202 472.261 226.742 472.938 242.539 472.938C258.787 472.938 277.066 471.358 297.376 468.199C317.686 465.04 333.031 462.106 343.412 459.398L358.983 454.659L361.014 461.429C326.713 473.615 285.416 479.708 237.123 479.708ZM384.968 251.559C384.968 169.416 404.827 107.132 444.544 64.707C484.713 21.8303 536.165 0.391962 598.9 0.391962C661.636 0.391962 711.508 18.8966 748.517 55.906C785.978 92.9153 804.708 152.04 804.708 233.28C804.708 314.52 784.85 375.901 745.132 417.424C705.415 458.947 652.383 479.708 586.037 479.708C528.718 479.708 481.779 463.234 445.221 430.287C426.265 413.136 411.371 389.441 400.539 359.202C390.158 328.511 384.968 292.63 384.968 251.559ZM596.869 7.162C551.285 7.162 513.824 27.472 484.487 68.092C455.602 108.712 441.159 168.288 441.159 246.82C441.159 325.352 454.925 382.671 482.456 418.778C509.988 454.885 546.546 472.938 592.13 472.938C638.166 472.938 675.627 452.628 704.512 412.008C733.849 370.937 748.517 311.586 748.517 233.957C748.517 155.876 734.526 98.557 706.543 61.999C679.012 25.441 642.454 7.162 596.869 7.162ZM933.312 3.77696C953.17 2.8743 972.578 2.42298 991.534 2.42298C1010.94 2.42298 1031.25 4.45398 1052.46 8.51598C1074.13 12.578 1095.34 20.2506 1116.1 31.534C1137.31 42.366 1155.14 56.583 1169.58 74.185C1184.48 91.3356 1196.44 114.128 1205.47 142.562C1214.49 170.996 1219.01 205.523 1219.01 246.143C1219.01 286.763 1212.24 323.321 1198.7 355.817C1185.61 387.862 1167.55 412.459 1144.54 429.61C1099.85 463.009 1045.92 479.708 982.733 479.708C960.617 479.708 937.374 478.805 913.002 477H879.152V3.77696H933.312ZM935.343 471.584C944.821 472.487 956.781 472.938 971.224 472.938C985.666 472.938 996.498 472.712 1003.72 472.261C1010.94 471.81 1020.87 470.004 1033.51 466.845C1046.15 463.234 1057.88 458.495 1068.71 452.628C1079.54 446.761 1090.83 438.185 1102.56 426.902C1114.75 415.167 1125.13 401.402 1133.7 385.605C1153.11 348.596 1162.81 300.303 1162.81 240.727C1162.81 198.302 1157.62 161.744 1147.24 131.053C1136.86 99.911 1124.9 76.893 1111.36 61.999C1098.27 47.105 1082.25 35.3703 1063.3 26.795C1044.34 17.7683 1029.22 12.578 1017.94 11.224C1006.65 9.86997 993.565 9.19297 978.671 9.19297C963.777 9.19297 949.334 9.86997 935.343 11.224V471.584ZM1563.13 3.09997V9.86996H1349.87V212.97H1547.56V219.74H1349.87V470.23H1578.02V477H1293.68V3.09997H1563.13Z" fill="black"/>
</svg>
