<svg width="2185" height="481" viewBox="0 0 2185 481" fill="none" xmlns="http://www.w3.org/2000/svg">
<path d="M237.123 480.708C152.724 480.708 90.214 456.787 49.594 408.946C35.1513 391.795 23.4167 369.003 14.39 340.569C5.36333 312.135 0.850001 277.608 0.850001 236.988C0.850001 196.368 7.39433 160.036 20.483 127.991C34.023 95.495 52.302 70.446 75.32 52.844C120.002 19.8966 173.936 3.42298 237.123 3.42298C255.176 3.42298 272.778 5.00265 289.929 8.162C307.08 10.87 319.943 13.8036 328.518 16.963L340.704 21.702L338.673 28.472C307.982 16.286 274.132 10.193 237.123 10.193C189.282 10.193 149.339 25.764 117.294 56.906C92.922 79.924 75.7713 113.774 65.842 158.456C59.9747 183.731 57.041 214.647 57.041 251.205C57.041 287.763 62.2313 321.613 72.612 352.755C82.9927 383.446 94.7273 406.238 107.816 421.132C121.356 436.026 137.604 447.986 156.56 457.013C175.516 465.588 190.636 470.553 201.919 471.907C213.202 473.261 226.742 473.938 242.539 473.938C258.787 473.938 277.066 472.358 297.376 469.199C317.686 466.04 333.031 463.106 343.412 460.398L358.983 455.659L361.014 462.429C326.713 474.615 285.416 480.708 237.123 480.708ZM432.226 9.51598C484.581 5.9053 530.842 4.09997 571.011 4.09997C682.49 4.09997 738.23 41.335 738.23 115.805C738.23 147.398 730.557 175.607 715.212 200.43C699.867 225.253 673.464 241.727 636.003 249.851L771.403 478H708.442L575.75 253.913H488.417V478H432.226V9.51598ZM571.011 10.87C544.834 10.87 517.302 12.4496 488.417 15.609V247.143H588.613C652.251 244.435 684.07 201.107 684.07 117.159C684.07 82.8576 674.592 56.6803 655.636 38.627C636.68 20.1223 608.472 10.87 571.011 10.87ZM1108.27 4.09997V10.87H895.014V213.97H1092.7V220.74H895.014V471.23H1123.16V478H838.823V4.09997H1108.27ZM1175.56 478H1167.43L1369.86 4.09997L1377.3 0.714971L1547.91 478H1490.36L1437.56 329.06H1239.87L1175.56 478ZM1348.87 77.216L1242.58 322.29H1435.52L1348.87 77.216ZM1714.28 478H1658.09V10.87H1540.97V4.09997H1832.08V10.87H1714.28V478ZM2169.39 4.09997V10.87H1956.13V213.97H2153.82V220.74H1956.13V471.23H2184.28V478H1899.94V4.09997H2169.39Z" fill="black"/>
</svg>
