<svg width="2197" height="480" viewBox="0 0 2197 480" fill="none" xmlns="http://www.w3.org/2000/svg">
<path d="M54.55 3.77696C74.4087 2.8743 93.816 2.42298 112.772 2.42298C132.179 2.42298 152.489 4.45398 173.702 8.51598C195.366 12.578 216.579 20.2506 237.34 31.534C258.553 42.366 276.38 56.583 290.823 74.185C305.717 91.3356 317.677 114.128 326.704 142.562C335.731 170.996 340.244 205.523 340.244 246.143C340.244 286.763 333.474 323.321 319.934 355.817C306.845 387.862 288.792 412.459 265.774 429.61C221.092 463.009 167.158 479.708 103.971 479.708C81.8557 479.708 58.612 478.805 34.24 477H0.39V3.77696H54.55ZM56.581 471.584C66.059 472.487 78.0193 472.938 92.462 472.938C106.905 472.938 117.737 472.712 124.958 472.261C132.179 471.81 142.109 470.004 154.746 466.845C167.383 463.234 179.118 458.495 189.95 452.628C200.782 446.761 212.065 438.185 223.8 426.902C235.986 415.167 246.367 401.402 254.942 385.605C274.349 348.596 284.053 300.303 284.053 240.727C284.053 198.302 278.863 161.744 268.482 131.053C258.101 99.911 246.141 76.893 232.601 61.999C219.512 47.105 203.49 35.3703 184.534 26.795C165.578 17.7683 150.458 12.578 139.175 11.224C127.892 9.86997 114.803 9.19297 99.909 9.19297C85.015 9.19297 70.5723 9.86997 56.581 11.224V471.584ZM684.366 3.09997V9.86996H471.111V212.97H668.795V219.74H471.111V470.23H699.26V477H414.92V3.09997H684.366ZM770.61 8.51598C822.964 4.9053 869 3.09997 908.718 3.09997C1020.65 3.09997 1076.61 42.5916 1076.61 121.575C1076.61 158.133 1067.14 190.178 1048.18 217.709C1038.25 232.603 1022.91 244.563 1002.14 253.59C981.382 262.165 956.333 266.453 926.997 266.453H826.801V477H770.61V8.51598ZM909.395 9.86996C883.217 9.86996 855.686 11.4496 826.801 14.609V259.683H926.997C990.635 256.975 1022.45 211.39 1022.45 122.929C1022.45 86.8223 1012.98 59.0653 994.02 39.658C975.064 19.7993 946.855 9.86996 909.395 9.86996ZM1402.07 477H1144.81V3.09997H1201V470.23H1402.07V477ZM1422.83 251.559C1422.83 169.416 1442.69 107.132 1482.41 64.707C1522.58 21.8303 1574.03 0.391962 1636.76 0.391962C1699.5 0.391962 1749.37 18.8966 1786.38 55.906C1823.84 92.9153 1842.57 152.04 1842.57 233.28C1842.57 314.52 1822.71 375.901 1782.99 417.424C1743.28 458.947 1690.25 479.708 1623.9 479.708C1566.58 479.708 1519.64 463.234 1483.08 430.287C1464.13 413.136 1449.23 389.441 1438.4 359.202C1428.02 328.511 1422.83 292.63 1422.83 251.559ZM1634.73 7.162C1589.15 7.162 1551.69 27.472 1522.35 68.092C1493.46 108.712 1479.02 168.288 1479.02 246.82C1479.02 325.352 1492.79 382.671 1520.32 418.778C1547.85 454.885 1584.41 472.938 1629.99 472.938C1676.03 472.938 1713.49 452.628 1742.37 412.008C1771.71 370.937 1786.38 311.586 1786.38 233.957C1786.38 155.876 1772.39 98.557 1744.41 61.999C1716.87 25.441 1680.32 7.162 1634.73 7.162ZM2183.41 3.09997C2191.98 11.6753 2196.27 22.733 2196.27 36.273C2196.27 47.5563 2193.79 59.0653 2188.82 70.8L2067.64 316.551V477H2011.45V331.445L1876.05 3.09997H1933.6L2062.9 308.427L2180.7 70.8C2185.66 59.5167 2188.15 47.782 2188.15 35.596C2188.15 23.41 2184.76 13.932 2177.99 7.162L2183.41 3.09997Z" fill="black"/>
</svg>
